<svg width="30" height="38" viewBox="0 0 30 38" fill="none" xmlns="http://www.w3.org/2000/svg">
<path d="M24.9902 6.36914H5.00977C4.6582 6.36914 4.36035 6.49121 4.11621 6.73535C3.87207 6.97949 3.75 7.27734 3.75 7.62891V27.6387C3.75 27.9707 3.87207 28.2588 4.11621 28.5029C4.36035 28.7471 4.6582 28.8691 5.00977 28.8691H24.9902C25.3418 28.8691 25.6396 28.7471 25.8838 28.5029C26.1279 28.2588 26.25 27.9707 26.25 27.6387V7.62891C26.25 7.27734 26.1279 6.97949 25.8838 6.73535C25.6396 6.49121 25.3418 6.36914 24.9902 6.36914ZM10.4297 25.5586H7.08984V14.8066H10.4297V25.5586ZM8.75977 13.3418C8.21289 13.3418 7.75391 13.1514 7.38281 12.7705C7.01172 12.3896 6.82617 11.9355 6.82617 11.4082C6.82617 10.8809 7.01172 10.4268 7.38281 10.0459C7.75391 9.66504 8.21289 9.47461 8.75977 9.47461C9.28711 9.47461 9.74121 9.66504 10.1221 10.0459C10.5029 10.4268 10.6934 10.8809 10.6934 11.4082C10.6934 11.9355 10.5029 12.3896 10.1221 12.7705C9.74121 13.1514 9.28711 13.3418 8.75977 13.3418ZM22.9102 25.5586H19.5996V20.3145C19.5996 19.6895 19.5215 19.0596 19.3652 18.4248C19.209 17.79 18.7012 17.4727 17.8418 17.4727C16.9824 17.4727 16.4355 17.7607 16.2012 18.3369C15.9668 18.9131 15.8496 19.543 15.8496 20.2266V25.5586H12.5098V14.8066H15.7031V16.2715H15.7617C15.9766 15.8613 16.3525 15.4707 16.8896 15.0996C17.4268 14.7285 18.1055 14.543 18.9258 14.543C20.6055 14.543 21.6895 15.0361 22.1777 16.0225C22.666 17.0088 22.9102 18.2246 22.9102 19.6699V25.5586Z" fill="#111111"/>
</svg>
