<svg width="30" height="38" viewBox="0 0 30 38" fill="none" xmlns="http://www.w3.org/2000/svg">
<path d="M24.5527 12.6094C24.5527 12.7266 24.5527 12.8389 24.5527 12.9463C24.5527 13.0537 24.5527 13.166 24.5527 13.2832C24.5527 14.9434 24.2402 16.623 23.6152 18.3223C22.9902 20.0215 22.0723 21.5596 20.8613 22.9365C19.6504 24.3135 18.1562 25.4316 16.3789 26.291C14.6016 27.1699 12.5508 27.6094 10.2266 27.6094C8.80078 27.6094 7.43359 27.4092 6.125 27.0088C4.81641 26.6084 3.60547 26.0566 2.49219 25.3535C2.70703 25.373 2.91211 25.3877 3.10742 25.3975C3.30273 25.4072 3.50781 25.4121 3.72266 25.4121C3.72266 25.4121 3.73242 25.4121 3.75195 25.4121C4.92383 25.4121 6.04199 25.2168 7.10645 24.8262C8.1709 24.4355 9.13281 23.9082 9.99219 23.2441H9.96289C8.86914 23.2246 7.89746 22.8926 7.04785 22.248C6.19824 21.6035 5.60742 20.7832 5.27539 19.7871V19.7578C5.41211 19.7773 5.56348 19.7969 5.72949 19.8164C5.89551 19.8359 6.05664 19.8457 6.21289 19.8457C6.44727 19.8457 6.67188 19.8311 6.88672 19.8018C7.10156 19.7725 7.31641 19.7285 7.53125 19.6699C6.37891 19.4355 5.41699 18.8594 4.64551 17.9414C3.87402 17.0234 3.48828 15.9492 3.48828 14.7188V14.6602C3.83984 14.8555 4.20605 15.0068 4.58691 15.1143C4.96777 15.2217 5.36328 15.2852 5.77344 15.3047C5.08984 14.8359 4.54297 14.2354 4.13281 13.5029C3.72266 12.7705 3.51758 11.9746 3.51758 11.1152C3.51758 10.6465 3.58105 10.1973 3.70801 9.76758C3.83496 9.33789 4.00586 8.9375 4.2207 8.56641C4.8457 9.32812 5.53906 10.0215 6.30078 10.6465C7.0625 11.2715 7.88281 11.8086 8.76172 12.2578C9.64062 12.707 10.5684 13.0684 11.5449 13.3418C12.5215 13.6152 13.5273 13.7812 14.5625 13.8398H14.5918C14.5527 13.6445 14.5234 13.4541 14.5039 13.2686C14.4844 13.083 14.4746 12.8926 14.4746 12.6973C14.4746 12.6973 14.4746 12.6924 14.4746 12.6826C14.4746 12.6729 14.4746 12.668 14.4746 12.668C14.4746 11.2812 14.9678 10.0996 15.9541 9.12305C16.9404 8.14648 18.127 7.6582 19.5137 7.6582C20.2363 7.6582 20.915 7.7998 21.5498 8.08301C22.1846 8.36621 22.7266 8.75195 23.1758 9.24023C23.7812 9.12305 24.3525 8.95703 24.8896 8.74219C25.4268 8.52734 25.9395 8.2832 26.4277 8.00977H26.3691C26.1738 8.61523 25.8906 9.15234 25.5195 9.62109C25.1484 10.0898 24.709 10.4805 24.2012 10.793H24.1719C24.6992 10.7344 25.2119 10.6367 25.71 10.5C26.208 10.3633 26.6816 10.1973 27.1309 10.002L27.0723 10.0312C26.7207 10.5391 26.335 11.0078 25.915 11.4375C25.4951 11.8672 25.0508 12.2578 24.582 12.6094H24.5527Z" fill="#111111"/>
</svg>
