<svg width="30" height="38" viewBox="0 0 30 38" fill="none" xmlns="http://www.w3.org/2000/svg">
<path d="M26.1914 13.0195C26.1719 12.5117 26.1182 12.0234 26.0303 11.5547C25.9424 11.0859 25.8105 10.627 25.6348 10.1777L25.6641 10.2363C25.3711 9.47461 24.9414 8.81055 24.375 8.24414C23.8086 7.67773 23.1543 7.24805 22.4121 6.95508H22.3828C21.9727 6.79883 21.5381 6.67188 21.0791 6.57422C20.6201 6.47656 20.1465 6.42773 19.6582 6.42773H19.6289C19.0234 6.38867 18.4814 6.36426 18.0029 6.35449C17.5244 6.34473 16.5234 6.33984 15 6.33984C13.4766 6.33984 12.4707 6.34473 11.9824 6.35449C11.4941 6.36426 10.957 6.38867 10.3711 6.42773C9.86328 6.42773 9.37988 6.47656 8.9209 6.57422C8.46191 6.67188 8.01758 6.79883 7.58789 6.95508H7.61719C6.875 7.24805 6.2207 7.67773 5.6543 8.24414C5.08789 8.81055 4.6582 9.46484 4.36523 10.207L4.33594 10.2363C4.17969 10.6465 4.05762 11.0811 3.96973 11.54C3.88184 11.999 3.82812 12.4727 3.80859 12.9609C3.78906 13.5664 3.77441 14.1084 3.76465 14.5869C3.75488 15.0654 3.75 16.0762 3.75 17.6191C3.75 19.1426 3.75 20.1436 3.75 20.6221C3.75 21.1006 3.76953 21.6426 3.80859 22.248C3.82812 22.7168 3.88184 23.1807 3.96973 23.6396C4.05762 24.0986 4.17969 24.543 4.33594 24.9727C4.62891 25.7344 5.05859 26.3984 5.625 26.9648C6.19141 27.5312 6.8457 27.9609 7.58789 28.2539H7.64648C8.03711 28.4297 8.46191 28.5664 8.9209 28.6641C9.37988 28.7617 9.85352 28.8203 10.3418 28.8398H10.3711C10.9766 28.8594 11.5186 28.874 11.9971 28.8838C12.4756 28.8936 13.4766 28.8984 15 28.8984C16.5234 28.8984 17.5293 28.8936 18.0176 28.8838C18.5059 28.874 19.043 28.8594 19.6289 28.8398C20.1367 28.8203 20.6201 28.7666 21.0791 28.6787C21.5381 28.5908 21.9922 28.459 22.4414 28.2832L22.3828 28.3125C23.125 28 23.7793 27.5654 24.3457 27.0088C24.9121 26.4521 25.3418 25.8027 25.6348 25.0605L25.6641 25.002C25.8203 24.5723 25.9424 24.1279 26.0303 23.6689C26.1182 23.21 26.1719 22.7461 26.1914 22.2773C26.2109 21.6719 26.2256 21.1299 26.2354 20.6514C26.2451 20.1729 26.25 19.1719 26.25 17.6484C26.25 16.125 26.25 15.1191 26.25 14.6309C26.25 14.1426 26.2305 13.6055 26.1914 13.0195ZM15 23.3906C14.1992 23.3906 13.4473 23.2344 12.7441 22.9219C12.041 22.6289 11.4258 22.2188 10.8984 21.6914C10.3711 21.1641 9.96094 20.5488 9.66797 19.8457C9.35547 19.1426 9.19922 18.3906 9.19922 17.5898C9.19922 16.7891 9.35547 16.0469 9.66797 15.3633C9.96094 14.6602 10.3711 14.0449 10.8984 13.5176C11.4258 12.9902 12.041 12.5801 12.7441 12.2871C13.4473 11.9746 14.1992 11.8184 15 11.8184C15.8008 11.8184 16.5527 11.9746 17.2559 12.2871C17.9395 12.5801 18.5449 12.9902 19.0723 13.5176C19.5996 14.0449 20.0098 14.6602 20.3027 15.3633C20.6152 16.0469 20.7715 16.7891 20.7715 17.5898C20.7715 18.3906 20.6152 19.1426 20.3027 19.8457C20.0098 20.5488 19.5996 21.1641 19.0723 21.6914C18.5449 22.2188 17.9395 22.6289 17.2559 22.9219C16.5527 23.2344 15.8008 23.3906 15 23.3906ZM21.0059 12.9609C20.6348 12.9609 20.3174 12.8291 20.0537 12.5654C19.79 12.3018 19.6582 11.9844 19.6582 11.6133C19.6582 11.2422 19.79 10.9248 20.0537 10.6611C20.3174 10.3975 20.6348 10.2656 21.0059 10.2656C21.377 10.2656 21.6943 10.3975 21.958 10.6611C22.2217 10.9248 22.3535 11.2422 22.3535 11.6133C22.3535 11.9844 22.2217 12.3018 21.958 12.5654C21.6943 12.8291 21.377 12.9609 21.0059 12.9609ZM18.75 17.5898C18.75 18.625 18.3838 19.5088 17.6514 20.2412C16.9189 20.9736 16.0352 21.3398 15 21.3398C13.9648 21.3398 13.0811 20.9736 12.3486 20.2412C11.6162 19.5088 11.25 18.625 11.25 17.5898C11.25 16.5547 11.6162 15.6709 12.3486 14.9385C13.0811 14.2061 13.9648 13.8398 15 13.8398C16.0352 13.8398 16.9189 14.2061 17.6514 14.9385C18.3838 15.6709 18.75 16.5547 18.75 17.5898Z" fill="#111111"/>
</svg>
