<svg width="30" height="38" viewBox="0 0 30 38" fill="none" xmlns="http://www.w3.org/2000/svg">
<path d="M15.002 5.13867C13.2637 5.13867 11.6426 5.46094 10.1387 6.10547C8.61523 6.76953 7.28711 7.66309 6.1543 8.78613C5.02148 9.90918 4.13281 11.2324 3.48828 12.7559C2.82422 14.2793 2.49219 15.9004 2.49219 17.6191C2.49219 18.9277 2.6875 20.1875 3.07812 21.3984C3.46875 22.6094 4.01562 23.7178 4.71875 24.7236C5.42188 25.7295 6.26172 26.623 7.23828 27.4043C8.21484 28.1855 9.2793 28.8008 10.4316 29.25C10.373 28.7617 10.334 28.1758 10.3145 27.4922C10.2949 26.8086 10.3535 26.1934 10.4902 25.6465C10.5488 25.4121 10.6562 24.9531 10.8125 24.2695C10.9688 23.6055 11.1299 22.9121 11.2959 22.1895C11.4619 21.4668 11.6133 20.832 11.75 20.2852C11.8867 19.7383 11.9551 19.4648 11.9551 19.4648C11.9551 19.4648 11.8916 19.2939 11.7646 18.9521C11.6377 18.6104 11.5742 18.1562 11.5742 17.5898C11.5742 16.7305 11.7939 16.0127 12.2334 15.4365C12.6729 14.8604 13.2051 14.5723 13.8301 14.5723C14.3574 14.5723 14.7529 14.7432 15.0166 15.085C15.2803 15.4268 15.4121 15.8418 15.4121 16.3301C15.4121 16.8574 15.2852 17.4971 15.0312 18.249C14.7773 19.001 14.5625 19.748 14.3867 20.4902C14.2305 21.1152 14.3428 21.6475 14.7236 22.0869C15.1045 22.5264 15.6074 22.7461 16.2324 22.7461C17.3457 22.7461 18.2783 22.2139 19.0303 21.1494C19.7822 20.085 20.1582 18.7129 20.1582 17.0332C20.1582 15.5293 19.6699 14.3037 18.6934 13.3564C17.7168 12.4092 16.4668 11.9355 14.9434 11.9355C13.166 11.9355 11.7793 12.4971 10.7832 13.6201C9.78711 14.7432 9.28906 15.9883 9.28906 17.3555C9.28906 17.9023 9.38184 18.4346 9.56738 18.9521C9.75293 19.4697 9.97266 19.8848 10.2266 20.1973C10.2656 20.2363 10.29 20.2803 10.2998 20.3291C10.3096 20.3779 10.3145 20.4219 10.3145 20.4609C10.3145 20.4805 10.3145 20.5 10.3145 20.5195C10.3145 20.5391 10.3145 20.5586 10.3145 20.5781C10.2754 20.7734 10.2119 21.0371 10.124 21.3691C10.0361 21.7012 9.98242 21.9062 9.96289 21.9844C9.94336 22.1016 9.89941 22.1748 9.83105 22.2041C9.7627 22.2334 9.66992 22.2188 9.55273 22.1602C8.77148 21.7891 8.15137 21.1152 7.69238 20.1387C7.2334 19.1621 7.00391 18.2246 7.00391 17.3262C7.00391 16.3301 7.18945 15.3828 7.56055 14.4844C7.91211 13.5664 8.43457 12.7559 9.12793 12.0527C9.82129 11.3496 10.6758 10.793 11.6914 10.3828C12.7266 9.97266 13.918 9.76758 15.2656 9.76758C16.3594 9.76758 17.3652 9.94336 18.2832 10.2949C19.2207 10.666 20.0361 11.1738 20.7295 11.8184C21.4229 12.4629 21.9746 13.2246 22.3848 14.1035C22.7754 14.9824 22.9707 15.9395 22.9707 16.9746C22.9707 18.0488 22.8047 19.0547 22.4727 19.9922C22.1602 20.9492 21.7158 21.7744 21.1396 22.4678C20.5635 23.1611 19.875 23.7129 19.0742 24.123C18.293 24.5332 17.4336 24.7383 16.4961 24.7383C15.8516 24.7383 15.2607 24.5967 14.7236 24.3135C14.1865 24.0303 13.8203 23.6934 13.625 23.3027L12.834 26.2617C12.6973 26.8086 12.4678 27.3896 12.1455 28.0049C11.8232 28.6201 11.5352 29.1328 11.2812 29.543C11.8477 29.7188 12.4434 29.8555 13.0684 29.9531C13.6934 30.0508 14.3281 30.0996 14.9727 30.0996C14.9727 30.0996 14.9775 30.0996 14.9873 30.0996C14.9971 30.0996 15.002 30.0996 15.002 30.0996C16.7207 30.0996 18.3418 29.7773 19.8652 29.1328C21.3691 28.4688 22.6875 27.5703 23.8203 26.4375C24.9531 25.3047 25.8418 23.9863 26.4863 22.4824C27.1504 20.959 27.4824 19.3379 27.4824 17.6191C27.4824 15.9004 27.1504 14.2793 26.4863 12.7559C25.8418 11.2324 24.9531 9.90918 23.8203 8.78613C22.6875 7.66309 21.3594 6.76953 19.8359 6.10547C18.332 5.46094 16.7207 5.13867 15.002 5.13867Z" fill="#111111"/>
</svg>
