<svg width="30" height="38" viewBox="0 0 30 38" fill="none" xmlns="http://www.w3.org/2000/svg">
<path d="M24.9902 6.36914H5.00977C4.6582 6.36914 4.36035 6.49121 4.11621 6.73535C3.87207 6.97949 3.75 7.27734 3.75 7.62891V27.6387C3.75 27.9707 3.87207 28.2588 4.11621 28.5029C4.36035 28.7471 4.6582 28.8691 5.00977 28.8691H15.7617V20.168H12.832V16.7695H15.7617V14.2793C15.7617 12.8145 16.167 11.6963 16.9775 10.9248C17.7881 10.1533 18.8477 9.76758 20.1562 9.76758C20.5859 9.76758 21.0205 9.78223 21.46 9.81152C21.8994 9.84082 22.334 9.875 22.7637 9.91406V12.9316H20.9766C20.2734 12.9316 19.8145 13.0879 19.5996 13.4004C19.3848 13.7129 19.2773 14.1133 19.2773 14.6016V16.7695H22.6465L22.207 20.168H19.2773V28.8691H24.9902C25.3418 28.8691 25.6396 28.7471 25.8838 28.5029C26.1279 28.2588 26.25 27.9707 26.25 27.6387V7.62891C26.25 7.27734 26.1279 6.97949 25.8838 6.73535C25.6396 6.49121 25.3418 6.36914 24.9902 6.36914Z" fill="#111111"/>
</svg>
